<?xml version="1.0" encoding="UTF-8"?>
<!DOCTYPE svg PUBLIC "-//W3C//DTD SVG 1.1//EN" "http://www.w3.org/Graphics/SVG/1.1/DTD/svg11.dtd">
<svg xmlns="http://www.w3.org/2000/svg" version="1.1" width="900px" height="364px" style="shape-rendering:geometricPrecision; text-rendering:geometricPrecision; image-rendering:optimizeQuality; fill-rule:evenodd; clip-rule:evenodd" xmlns:xlink="http://www.w3.org/1999/xlink">
<g><path style="opacity:0.995" fill="#01aa4f" d="M 697.5,-0.5 C 710.5,-0.5 723.5,-0.5 736.5,-0.5C 805.74,9.53484 855.24,46.2015 885,109.5C 892.688,128.251 897.521,147.585 899.5,167.5C 899.5,176.833 899.5,186.167 899.5,195.5C 890.901,268.856 852.901,320.689 785.5,351C 769.47,356.923 753.137,361.09 736.5,363.5C 723.5,363.5 710.5,363.5 697.5,363.5C 624.973,352.475 574.473,313.142 546,245.5C 523.698,178.022 534.698,116.689 579,61.5C 610.81,26.1781 650.31,5.51143 697.5,-0.5 Z"/></g>
<g><path style="opacity:0.962" fill="#00aa4f" d="M -0.5,251.5 C -0.5,250.833 -0.5,250.167 -0.5,249.5C 22.6639,203.838 45.3305,157.838 67.5,111.5C 73.1667,110.167 78.8333,110.167 84.5,111.5C 107.772,157.71 130.772,204.043 153.5,250.5C 146.858,251.664 140.192,251.831 133.5,251C 127.167,238.667 120.833,226.333 114.5,214C 88.8268,213.167 63.1602,213.334 37.5,214.5C 31.5,226.5 25.5,238.5 19.5,250.5C 12.8665,251.497 6.19979,251.83 -0.5,251.5 Z M 75.5,136.5 C 86.1865,156.036 96.5199,175.869 106.5,196C 86.4917,196.833 66.4917,196.666 46.5,195.5C 56.4497,175.934 66.1164,156.268 75.5,136.5 Z"/></g>
<g><path style="opacity:0.954" fill="#00aa4f" d="M 183.5,110.5 C 220.833,110.5 258.167,110.5 295.5,110.5C 295.5,116.167 295.5,121.833 295.5,127.5C 264.5,127.5 233.5,127.5 202.5,127.5C 202.5,140.833 202.5,154.167 202.5,167.5C 221.167,167.5 239.833,167.5 258.5,167.5C 258.5,173.167 258.5,178.833 258.5,184.5C 239.833,184.5 221.167,184.5 202.5,184.5C 202.5,206.833 202.5,229.167 202.5,251.5C 196.167,251.5 189.833,251.5 183.5,251.5C 183.5,204.5 183.5,157.5 183.5,110.5 Z"/></g>
<g><path style="opacity:0.96" fill="#00a94f" d="M 327.5,110.5 C 360.208,110.036 392.875,110.536 425.5,112C 446.136,119.08 455.303,133.58 453,155.5C 449.744,174.091 438.91,185.591 420.5,190C 432.167,210.333 443.833,230.667 455.5,251C 448.253,251.812 441.086,251.646 434,250.5C 422.833,230.833 411.667,211.167 400.5,191.5C 382.512,190.5 364.512,190.167 346.5,190.5C 346.5,210.833 346.5,231.167 346.5,251.5C 340.167,251.5 333.833,251.5 327.5,251.5C 327.5,204.5 327.5,157.5 327.5,110.5 Z M 346.5,127.5 C 369.836,127.333 393.169,127.5 416.5,128C 427.916,130.8 433.916,138.134 434.5,150C 434.064,160.413 429.064,167.413 419.5,171C 395.219,172.461 370.885,172.961 346.5,172.5C 346.5,157.5 346.5,142.5 346.5,127.5 Z"/></g>
<g><path style="opacity:0.929" fill="#00aa4f" d="M 486.5,110.5 C 492.833,110.5 499.167,110.5 505.5,110.5C 505.5,157.833 505.5,205.167 505.5,252.5C 499.167,252.5 492.833,252.5 486.5,252.5C 486.5,205.167 486.5,157.833 486.5,110.5 Z"/></g>
<g><path style="opacity:1" fill="#fcfefd" d="M 644.5,192.5 C 644.5,187.5 644.5,182.5 644.5,177.5C 662.167,177.5 679.833,177.5 697.5,177.5C 697.667,191.171 697.5,204.837 697,218.5C 679.28,244.983 654.446,255.817 622.5,251C 591.686,243.852 573.52,224.686 568,193.5C 563.769,161.141 575.269,136.307 602.5,119C 620.187,110.956 638.52,109.289 657.5,114C 673.572,118.743 686.239,128.076 695.5,142C 691.09,145.621 686.59,149.121 682,152.5C 671.774,135.463 656.608,126.796 636.5,126.5C 608.887,128.276 591.721,142.61 585,169.5C 581.469,191.909 587.969,210.742 604.5,226C 625.243,239.641 646.243,239.974 667.5,227C 672.034,222.801 676.201,218.301 680,213.5C 680.5,206.508 680.666,199.508 680.5,192.5C 668.5,192.5 656.5,192.5 644.5,192.5 Z"/></g>
<g><path style="opacity:1" fill="#fcfefd" d="M 784.5,111.5 C 814.355,107.691 838.188,117.691 856,141.5C 866.518,159.943 869.518,179.609 865,200.5C 857.833,226.333 841.333,242.833 815.5,250C 786.317,256.382 761.817,248.549 742,226.5C 724.358,199.292 723.024,171.292 738,142.5C 749.314,125.768 764.814,115.435 784.5,111.5 Z"/></g>
<g><path style="opacity:1" fill="#04aa50" d="M 790.5,126.5 C 822.619,125.291 842.119,140.291 849,171.5C 852.707,199.929 841.873,220.429 816.5,233C 791.929,240.903 771.429,235.07 755,215.5C 738.958,188.101 741.458,162.601 762.5,139C 770.847,132.394 780.181,128.227 790.5,126.5 Z"/></g>
<g><path style="opacity:1" fill="#73cf9d" d="M 697.5,177.5 C 679.833,177.5 662.167,177.5 644.5,177.5C 644.5,182.5 644.5,187.5 644.5,192.5C 643.512,187.36 643.179,182.026 643.5,176.5C 661.674,176.17 679.674,176.503 697.5,177.5 Z"/></g>
</svg>
